<?xml version="1.0" encoding="UTF-8" standalone="no"?>
<!-- Created with Inkscape (http://www.inkscape.org/) -->

<svg
   xmlns:dc="http://purl.org/dc/elements/1.1/"
   xmlns:cc="http://creativecommons.org/ns#"
   xmlns:rdf="http://www.w3.org/1999/02/22-rdf-syntax-ns#"
   xmlns:svg="http://www.w3.org/2000/svg"
   xmlns="http://www.w3.org/2000/svg"
   xmlns:sodipodi="http://sodipodi.sourceforge.net/DTD/sodipodi-0.dtd"
   xmlns:inkscape="http://www.inkscape.org/namespaces/inkscape"
   width="2048"
   height="2048"
   id="svg2"
   version="1.1"
   inkscape:version="0.48.2 r9819"
   sodipodi:docname="icon.svg"
   inkscape:export-filename="H:\code\DreamInTweets\res\drawable-hdpi\ic_launcher.png"
   inkscape:export-xdpi="3.1600001"
   inkscape:export-ydpi="3.1600001">
  <defs
     id="defs4" />
  <sodipodi:namedview
     id="base"
     pagecolor="#ff0000"
     bordercolor="#666666"
     borderopacity="1.0"
     inkscape:pageopacity="0"
     inkscape:pageshadow="2"
     inkscape:zoom="0.175"
     inkscape:cx="148.76473"
     inkscape:cy="650.8737"
     inkscape:document-units="px"
     inkscape:current-layer="layer1"
     showgrid="false"
     inkscape:window-width="1920"
     inkscape:window-height="1138"
     inkscape:window-x="1272"
     inkscape:window-y="-8"
     inkscape:window-maximized="1" />
  <metadata
     id="metadata7">
    <rdf:RDF>
      <cc:Work
         rdf:about="">
        <dc:format>image/svg+xml</dc:format>
        <dc:type
           rdf:resource="http://purl.org/dc/dcmitype/StillImage" />
        <dc:title></dc:title>
      </cc:Work>
    </rdf:RDF>
  </metadata>
  <g
     inkscape:label="Layer 1"
     inkscape:groupmode="layer"
     id="layer1"
     transform="translate(0,995.63782)">
    <path
       transform="matrix(4.6286797,0,0,3.1950179,-515.58603,-1656.7917)"
       d="m 448.57143,388.07648 a 111.42857,161.42857 0 1 1 -222.85715,0 111.42857,161.42857 0 1 1 222.85715,0 z"
       sodipodi:ry="161.42857"
       sodipodi:rx="111.42857"
       sodipodi:cy="388.07648"
       sodipodi:cx="337.14285"
       id="path4002"
       style="fill:none;stroke:#c2c2c2;stroke-width:5.86356354;stroke-linejoin:round;stroke-miterlimit:4;stroke-opacity:1;stroke-dasharray:none"
       sodipodi:type="arc" />
    <path
       sodipodi:type="arc"
       style="fill:#c2c2c2;fill-opacity:1;stroke:#0a0000;stroke-width:5.86356354000000040;stroke-linejoin:round;stroke-miterlimit:4;stroke-opacity:1;stroke-dasharray:none"
       id="path2985"
       sodipodi:cx="337.14285"
       sodipodi:cy="388.07648"
       sodipodi:rx="111.42857"
       sodipodi:ry="161.42857"
       d="m 448.57143,388.07648 a 111.42857,161.42857 0 1 1 -222.85715,0 111.42857,161.42857 0 1 1 222.85715,0 z"
       transform="matrix(4.4367347,0,0,3.0625249,-450.44456,-1604.9457)" />
    <g
       id="g3784"
       transform="matrix(-8.7310655,-6.3685701,6.3685701,-8.7310655,3606.6595,7417.8532)"
       style="fill:#006cea;fill-opacity:1">
      <path
         sodipodi:nodetypes="saaasaccccsssssss"
         inkscape:connector-curvature="0"
         id="path3768"
         d="m 529.57247,392.73257 c 1.59233,-0.8613 3.71684,-0.46015 5.42957,0.12627 3.41666,1.16983 6.24025,3.80729 8.71257,6.43972 2.81334,2.99553 4.53264,6.85775 6.69226,10.35406 2.00294,3.24266 5.30331,9.21765 5.80838,9.84899 0.50508,0.63135 4.28504,7.30988 5.3033,11.36422 0.55449,2.20778 0.37881,6.81853 0.37881,6.81853 l 10.73287,6.69226 -0.63135,0.50507 -10.73287,-6.43972 c 0,0 -2.28563,1.20137 -3.53554,1.26269 -3.63997,0.17858 -7.35093,-1.01402 -10.6066,-2.65165 -3.79377,-1.9083 -6.99472,-4.93678 -9.84898,-8.08122 -3.20118,-3.52662 -5.43345,-7.82868 -7.95496,-11.86929 -1.77719,-2.84787 -4.20704,-5.46343 -5.05076,-8.71257 -0.61366,-2.36319 -0.56384,-4.9816 0.12627,-7.3236 0.92435,-3.13694 2.30058,-6.77786 5.17703,-8.33376 z"
         style="fill:#006cea;fill-opacity:1;stroke:#000000;stroke-width:1px;stroke-linecap:butt;stroke-linejoin:miter;stroke-opacity:1" />
      <path
         inkscape:connector-curvature="0"
         id="path3772"
         d="m 532.09785,397.9096 c 0,0 0.72395,4.87684 1.51523,7.19734 0.87489,2.56572 2.2244,4.95099 3.53554,7.3236 1.60981,2.91307 3.28742,5.8117 5.3033,8.46003 2.45396,3.22385 5.30845,6.13479 8.20749,8.96511 1.87837,1.83385 3.82954,3.60864 5.93464,5.17703 1.51696,1.1302 4.79823,3.03046 4.79823,3.03046"
         style="fill:#006cea;fill-opacity:1;stroke:#000000;stroke-width:1px;stroke-linecap:butt;stroke-linejoin:miter;stroke-opacity:1"
         sodipodi:nodetypes="csssssc" />
      <path
         inkscape:connector-curvature="0"
         id="path3774"
         d="m 545.10357,407.25351 c 0,0 -0.1927,4.64487 -0.50508,6.9448 -0.20219,1.48865 -0.28667,3.04091 -0.88388,4.41942 -0.28787,0.66446 -1.26269,1.76777 -1.26269,1.76777"
         style="fill:#006cea;fill-opacity:1;stroke:#000000;stroke-width:1px;stroke-linecap:butt;stroke-linejoin:miter;stroke-opacity:1"
         sodipodi:nodetypes="csac" />
      <path
         inkscape:connector-curvature="0"
         id="path3776"
         d="m 550.14423,418.74729 c 0,0 -0.59301,2.71804 -1.26269,3.91434 -0.56865,1.01581 -2.27284,2.65165 -2.27284,2.65165"
         style="fill:#006cea;fill-opacity:1;stroke:#000000;stroke-width:1px;stroke-linecap:butt;stroke-linejoin:miter;stroke-opacity:1"
         sodipodi:nodetypes="csc" />
      <path
         inkscape:connector-curvature="0"
         id="path3778"
         d="m 537.40115,421.14311 c 0,0 2.47654,1.09127 3.78808,1.38896 0.86586,0.19653 2.65165,0.25254 2.65165,0.25254"
         style="fill:#006cea;fill-opacity:1;stroke:#000000;stroke-width:1px;stroke-linecap:butt;stroke-linejoin:miter;stroke-opacity:1"
         sodipodi:nodetypes="cac" />
      <path
         inkscape:connector-curvature="0"
         id="path3780"
         d="m 527.17336,408.38993 c 0,0 2.91499,1.8735 4.54569,2.39912 1.456,0.46931 4.54568,0.63134 4.54568,0.63134"
         style="fill:#006cea;fill-opacity:1;stroke:#000000;stroke-width:1px;stroke-linecap:butt;stroke-linejoin:miter;stroke-opacity:1"
         sodipodi:nodetypes="cac" />
      <path
         inkscape:connector-curvature="0"
         id="path3782"
         d="m 542.32565,431.62344 c 0,0 2.9339,1.8181 4.54569,2.39911 1.73951,0.62704 3.58279,1.04439 5.42957,1.13643 1.18379,0.059 3.53553,-0.37881 3.53553,-0.37881"
         style="fill:#006cea;fill-opacity:1;stroke:#000000;stroke-width:1px;stroke-linecap:butt;stroke-linejoin:miter;stroke-opacity:1"
         sodipodi:nodetypes="cssc" />
    </g>
    <path
       sodipodi:nodetypes="saaasaccccsssssss"
       inkscape:connector-curvature="0"
       id="path3795"
       d="m 1062.7957,971.8121 c 22.3888,-1.23934 39.693,-20.47928 51.511,-38.97364 23.5755,-36.89396 29.5157,-86.33565 32.0978,-133.29142 2.9383,-53.4327 -11.7346,-109.13249 -19.1809,-163.72585 -6.906,-50.63284 -23.4077,-141.23118 -23.6387,-151.88511 -0.2312,-10.65414 -17.7952,-112.54931 -40.8084,-165.58129 -12.5319,-28.87833 -51.6076,-79.9669 -51.6076,-79.9669 l 49.5983,-150.124974 -10.203,-1.364162 -51.64545,147.260266 c 0,0 -31.85359,2.17533 -44.44434,10.12201 -36.66669,23.14179 -62.90521,62.32887 -81.13081,103.41625 -21.23803,47.87825 -27.65963,104.36478 -29.78687,159.76953 -2.38574,62.13889 10.88919,126.37487 19.24621,189.64492 5.89022,44.59337 3.58218,91.06423 21.75709,133.75536 13.21906,31.05053 34.92666,60.40859 60.58874,82.20416 34.37259,29.19346 77.20283,60.97962 117.64693,58.74085 z"
       style="fill:#006cea;fill-opacity:1;stroke:#000000;stroke-width:12.87660503px;stroke-linecap:butt;stroke-linejoin:miter;stroke-opacity:1" />
    <path
       sodipodi:nodetypes="csssssc"
       inkscape:connector-curvature="0"
       id="path3797"
       d="m 1045.2639,895.62407 c 0,0 -32.4674,-60.04082 -43.6826,-92.12158 -12.14738,-34.74684 -18.58129,-71.3061 -25.1584,-107.52268 -7.96678,-43.86779 -15.32891,-88.09362 -17.26638,-132.63684 -2.29734,-52.81336 1.56139,-105.83745 6.73922,-158.44655 3.2959,-33.48836 7.67434,-67.02222 15.45513,-99.76048 5.47242,-23.02593 21.86033,-67.55295 21.86033,-67.55295"
       style="fill:#006cea;fill-opacity:1;stroke:#000000;stroke-width:12.87660503px;stroke-linecap:butt;stroke-linejoin:miter;stroke-opacity:1" />
    <path
       sodipodi:nodetypes="casc"
       inkscape:connector-curvature="0"
       id="path3799"
       d="m 1095.3586,699.70432 c 0,0 -39.4761,-51.31843 -61.1834,-75.28782 -13.9864,-15.44389 -27.09,-32.39016 -44.37708,-44.02146 -7.98191,-5.37052 -26.54738,-11.32266 -26.54738,-11.32266"
       style="fill:#006cea;fill-opacity:1;stroke:#000000;stroke-width:12.87660503px;stroke-linecap:butt;stroke-linejoin:miter;stroke-opacity:1" />
    <path
       sodipodi:nodetypes="csc"
       inkscape:connector-curvature="0"
       id="path3801"
       d="m 1050.6872,539.3189 c 0,0 -27.3938,-26.61979 -43.948,-35.67278 -13.39381,-7.32473 -43.48619,-14.3647 -43.48619,-14.3647"
       style="fill:#006cea;fill-opacity:1;stroke:#000000;stroke-width:12.87660503px;stroke-linecap:butt;stroke-linejoin:miter;stroke-opacity:1" />
    <path
       sodipodi:nodetypes="csc"
       inkscape:connector-curvature="0"
       id="path3803"
       d="m 908.23979,595.40049 c 0,0 14.96687,-29.35989 25.39288,-41.94772 6.74656,-8.14542 23.60929,-21.19892 23.60929,-21.19892"
       style="fill:#006cea;fill-opacity:1;stroke:#000000;stroke-width:12.87660503px;stroke-linecap:butt;stroke-linejoin:miter;stroke-opacity:1" />
    <path
       sodipodi:nodetypes="csc"
       inkscape:connector-curvature="0"
       id="path3805"
       d="m 912.65994,810.78691 c 0,0 12.7,-41.06782 24.53459,-58.64511 10.19646,-15.14399 38.8646,-38.59162 38.8646,-38.59162"
       style="fill:#006cea;fill-opacity:1;stroke:#000000;stroke-width:12.87660503px;stroke-linecap:butt;stroke-linejoin:miter;stroke-opacity:1" />
    <path
       sodipodi:nodetypes="casc"
       inkscape:connector-curvature="0"
       id="path3807"
       d="m 870.93117,442.46495 c 0,0 13.40526,-40.61274 24.53469,-58.64489 11.63974,-18.859 26.06637,-36.52696 43.32248,-50.43269 10.99823,-8.86365 37.27933,-20.14837 37.27933,-20.14837"
       style="fill:#006cea;fill-opacity:1;stroke:#000000;stroke-width:12.87660503px;stroke-linecap:butt;stroke-linejoin:miter;stroke-opacity:1" />
    <path
       style="fill:#006cea;fill-opacity:1;stroke:#000000;stroke-width:10.80695057px;stroke-linecap:butt;stroke-linejoin:miter;stroke-opacity:1"
       d="m 433.42818,583.34944 c -17.14166,-9.43004 -25.92533,-31.08133 -30.61652,-50.07487 -9.35828,-37.88939 -1.91132,-78.97569 7.54487,-116.84076 10.76059,-43.08796 35.79673,-81.30512 54.93206,-121.3827 17.74706,-37.16996 52.73143,-102.11369 55.51347,-110.39657 2.78192,-8.28288 41.35344,-81.70033 72.23647,-114.671366 16.81724,-17.954344 59.74093,-43.331659 59.74093,-43.331659 l -1.97951,-136.675835 8.28288,2.78204 4.27415,135.198411 c 0,0 24.28765,13.740281 32.15706,24.738948 22.91711,32.030181 33.79031,72.726891 37.95606,111.890201 4.85427,45.63624 -3.93805,92.43898 -15.8123,136.76996 -13.3174,49.719 -39.34919,95.17055 -61.31323,141.72063 -15.48042,32.80914 -25.03193,70.18952 -49.61947,96.8641 -17.88323,19.40118 -41.96707,34.26658 -67.28505,41.697 -33.91167,9.95245 -75.04628,18.74725 -106.01187,1.71247 z"
       id="path3811"
       inkscape:connector-curvature="0"
       sodipodi:nodetypes="saaasaccccsssssss" />
    <path
       sodipodi:nodetypes="caaaaac"
       style="fill:#006cea;fill-opacity:1;stroke:#000000;stroke-width:10.80695057px;stroke-linecap:butt;stroke-linejoin:miter;stroke-opacity:1"
       d="m 465.69579,530.11591 c 0,0 40.07845,-35.10854 56.53473,-55.87388 18.19534,-22.95969 31.97431,-49.17638 45.86286,-74.9703 17.05208,-31.66956 33.57634,-63.87081 45.84741,-97.68144 14.93759,-41.15806 24.68881,-84.12509 33.44676,-127.02533 5.67462,-27.79624 10.38667,-55.90847 12.32273,-84.21198 1.39518,-20.395851 -0.53386,-61.32815 -0.53386,-61.32815"
       id="path3813"
       inkscape:connector-curvature="0" />
    <path
       sodipodi:nodetypes="casc"
       style="fill:#006cea;fill-opacity:1;stroke:#000000;stroke-width:10.80695057px;stroke-linecap:butt;stroke-linejoin:miter;stroke-opacity:1"
       d="m 474.51405,357.27505 c 0,0 37.24227,-31.62405 59.23636,-41.49718 16.29872,-7.31652 36.13142,-9.72658 52.1511,-12.36455 7.72167,-1.27144 23.44989,1.13181 23.44989,1.13181"
       id="path3815"
       inkscape:connector-curvature="0" />
    <path
       sodipodi:nodetypes="cac"
       style="fill:#006cea;fill-opacity:1;stroke:#000000;stroke-width:10.80695057px;stroke-linecap:butt;stroke-linejoin:miter;stroke-opacity:1"
       d="m 548.06238,249.52197 c 0,0 28.16691,-10.51257 42.95482,-11.42597 12.55692,-0.77594 37.39097,5.13967 37.39097,5.13967"
       id="path3817"
       inkscape:connector-curvature="0" />
    <path
       sodipodi:nodetypes="csc"
       style="fill:#006cea;fill-opacity:1;stroke:#000000;stroke-width:10.80695057px;stroke-linecap:butt;stroke-linejoin:miter;stroke-opacity:1"
       d="m 645.78337,346.00708 c 0,0 -4.57232,-28.88731 -9.54006,-42.54632 -3.27969,-9.01743 -13.21787,-25.57173 -13.21787,-25.57173"
       id="path3819"
       inkscape:connector-curvature="0" />
    <path
       sodipodi:nodetypes="cac"
       style="fill:#006cea;fill-opacity:1;stroke:#000000;stroke-width:10.80695057px;stroke-linecap:butt;stroke-linejoin:miter;stroke-opacity:1"
       d="m 589.73506,513.55091 c 0,0 -0.0324,-37.4476 -4.79332,-55.34002 -4.2534,-15.97559 -20.85633,-44.99809 -20.85633,-44.99809"
       id="path3821"
       inkscape:connector-curvature="0" />
    <path
       sodipodi:nodetypes="caac"
       style="fill:#006cea;fill-opacity:1;stroke:#000000;stroke-width:10.80695057px;stroke-linecap:butt;stroke-linejoin:miter;stroke-opacity:1"
       d="m 712.2044,239.94852 c 0,0 -0.64409,-37.29522 -4.79342,-55.33991 -4.47884,-19.47445 -11.47007,-38.66511 -21.43764,-55.98443 -6.38929,-11.10177 -24.12555,-29.909754 -24.12555,-29.909754"
       id="path3823"
       inkscape:connector-curvature="0" />
    <path
       transform="matrix(1.2286344,0,0,0.8480838,631.14351,-745.57322)"
       d="m 448.57143,388.07648 a 111.42857,161.42857 0 1 1 -222.85715,0 111.42857,161.42857 0 1 1 222.85715,0 z"
       sodipodi:ry="161.42857"
       sodipodi:rx="111.42857"
       sodipodi:cy="388.07648"
       sodipodi:cx="337.14285"
       id="path3836"
       style="fill:#c2c2c2;fill-opacity:1;stroke:#0a0000;stroke-width:21.17397881000000100;stroke-linejoin:round;stroke-miterlimit:4;stroke-opacity:1;stroke-dasharray:none"
       sodipodi:type="arc" />
    <g
       id="g3844"
       style="stroke-width:2;stroke-miterlimit:4;stroke-dasharray:none"
       transform="matrix(10.806951,0,0,10.806951,-3076.711,-4185.8165)">
      <path
         sodipodi:nodetypes="csc"
         inkscape:connector-curvature="0"
         id="path3840"
         d="m 381.83766,303.46034 c 0,0 -13.80635,28.5688 -14.01586,43.94163 -0.22091,16.2098 13.51079,46.71956 13.51079,46.71956"
         style="fill:none;stroke:#000000;stroke-width:2;stroke-linecap:butt;stroke-linejoin:miter;stroke-miterlimit:4;stroke-opacity:1;stroke-dasharray:none" />
      <path
         style="fill:none;stroke:#000000;stroke-width:2;stroke-linecap:butt;stroke-linejoin:miter;stroke-miterlimit:4;stroke-opacity:1;stroke-dasharray:none"
         d="m 381.45622,303.33407 c 0,0 13.80635,28.5688 14.01586,43.94163 0.22091,16.2098 -13.51079,46.71956 -13.51079,46.71956"
         id="path3842"
         inkscape:connector-curvature="0"
         sodipodi:nodetypes="csc" />
    </g>
    <g
       id="g3848"
       transform="matrix(-0.03085482,10.806907,-10.806907,-0.03085482,4828.1734,-4530.7953)"
       style="stroke-width:2;stroke-miterlimit:4;stroke-dasharray:none">
      <path
         style="fill:none;stroke:#000000;stroke-width:2;stroke-linecap:butt;stroke-linejoin:miter;stroke-miterlimit:4;stroke-opacity:1;stroke-dasharray:none"
         d="m 381.83766,303.46034 c 0,0 -13.80635,28.5688 -14.01586,43.94163 -0.22091,16.2098 13.51079,46.71956 13.51079,46.71956"
         id="path3850"
         inkscape:connector-curvature="0"
         sodipodi:nodetypes="csc" />
      <path
         sodipodi:nodetypes="csc"
         inkscape:connector-curvature="0"
         id="path3852"
         d="m 381.45622,303.33407 c 0,0 13.80635,28.5688 14.01586,43.94163 0.22091,16.2098 -13.51079,46.71956 -13.51079,46.71956"
         style="fill:none;stroke:#000000;stroke-width:2;stroke-linecap:butt;stroke-linejoin:miter;stroke-miterlimit:4;stroke-opacity:1;stroke-dasharray:none" />
    </g>
    <g
       transform="matrix(-7.7531818,7.5285033,-7.5285033,-7.7531818,6632.1297,-586.6088)"
       id="g3854"
       style="stroke-width:2;stroke-miterlimit:4;stroke-dasharray:none">
      <path
         sodipodi:nodetypes="csc"
         inkscape:connector-curvature="0"
         id="path3856"
         d="m 381.83766,303.46034 c 0,0 -13.80635,28.5688 -14.01586,43.94163 -0.22091,16.2098 13.51079,46.71956 13.51079,46.71956"
         style="fill:none;stroke:#000000;stroke-width:2;stroke-linecap:butt;stroke-linejoin:miter;stroke-miterlimit:4;stroke-opacity:1;stroke-dasharray:none" />
      <path
         style="fill:none;stroke:#000000;stroke-width:2;stroke-linecap:butt;stroke-linejoin:miter;stroke-miterlimit:4;stroke-opacity:1;stroke-dasharray:none"
         d="m 381.45622,303.33407 c 0,0 13.80635,28.5688 14.01586,43.94163 0.22091,16.2098 -13.51079,46.71956 -13.51079,46.71956"
         id="path3858"
         inkscape:connector-curvature="0"
         sodipodi:nodetypes="csc" />
    </g>
    <g
       id="g3860"
       transform="matrix(-7.5769884,-7.7058054,7.7058054,-7.5769884,1251.3003,5165.1301)"
       style="stroke-width:2;stroke-miterlimit:4;stroke-dasharray:none">
      <path
         style="fill:none;stroke:#000000;stroke-width:2;stroke-linecap:butt;stroke-linejoin:miter;stroke-miterlimit:4;stroke-opacity:1;stroke-dasharray:none"
         d="m 381.83766,303.46034 c 0,0 -13.80635,28.5688 -14.01586,43.94163 -0.22091,16.2098 13.51079,46.71956 13.51079,46.71956"
         id="path3862"
         inkscape:connector-curvature="0"
         sodipodi:nodetypes="csc" />
      <path
         sodipodi:nodetypes="csc"
         inkscape:connector-curvature="0"
         id="path3864"
         d="m 381.45622,303.33407 c 0,0 13.80635,28.5688 14.01586,43.94163 0.22091,16.2098 -13.51079,46.71956 -13.51079,46.71956"
         style="fill:none;stroke:#000000;stroke-width:2;stroke-linecap:butt;stroke-linejoin:miter;stroke-miterlimit:4;stroke-opacity:1;stroke-dasharray:none" />
    </g>
    <g
       transform="matrix(-3.9773383,10.048431,-10.048431,-3.9773383,6069.847,-2865.0775)"
       id="g3866"
       style="stroke-width:2;stroke-miterlimit:4;stroke-dasharray:none">
      <path
         sodipodi:nodetypes="csc"
         inkscape:connector-curvature="0"
         id="path3868"
         d="m 381.83766,303.46034 c 0,0 -13.80635,28.5688 -14.01586,43.94163 -0.22091,16.2098 13.51079,46.71956 13.51079,46.71956"
         style="fill:none;stroke:#000000;stroke-width:2;stroke-linecap:butt;stroke-linejoin:miter;stroke-miterlimit:4;stroke-opacity:1;stroke-dasharray:none" />
      <path
         style="fill:none;stroke:#000000;stroke-width:2;stroke-linecap:butt;stroke-linejoin:miter;stroke-miterlimit:4;stroke-opacity:1;stroke-dasharray:none"
         d="m 381.45622,303.33407 c 0,0 13.80635,28.5688 14.01586,43.94163 0.22091,16.2098 -13.51079,46.71956 -13.51079,46.71956"
         id="path3870"
         inkscape:connector-curvature="0"
         sodipodi:nodetypes="csc" />
    </g>
    <g
       id="g3872"
       transform="matrix(-9.8767948,4.3862415,-4.3862415,-9.8767948,6346.3391,1352.681)"
       style="stroke-width:2;stroke-miterlimit:4;stroke-dasharray:none">
      <path
         style="fill:none;stroke:#000000;stroke-width:2;stroke-linecap:butt;stroke-linejoin:miter;stroke-miterlimit:4;stroke-opacity:1;stroke-dasharray:none"
         d="m 381.83766,303.46034 c 0,0 -13.80635,28.5688 -14.01586,43.94163 -0.22091,16.2098 13.51079,46.71956 13.51079,46.71956"
         id="path3874"
         inkscape:connector-curvature="0"
         sodipodi:nodetypes="csc" />
      <path
         sodipodi:nodetypes="csc"
         inkscape:connector-curvature="0"
         id="path3876"
         d="m 381.45622,303.33407 c 0,0 13.80635,28.5688 14.01586,43.94163 0.22091,16.2098 -13.51079,46.71956 -13.51079,46.71956"
         style="fill:none;stroke:#000000;stroke-width:2;stroke-linecap:butt;stroke-linejoin:miter;stroke-miterlimit:4;stroke-opacity:1;stroke-dasharray:none" />
    </g>
    <g
       transform="matrix(-9.9113765,-4.307529,4.307529,-9.9113765,3327.0101,4682.6492)"
       id="g3878"
       style="stroke-width:2;stroke-miterlimit:4;stroke-dasharray:none">
      <path
         sodipodi:nodetypes="csc"
         inkscape:connector-curvature="0"
         id="path3880"
         d="m 381.83766,303.46034 c 0,0 -13.80635,28.5688 -14.01586,43.94163 -0.22091,16.2098 13.51079,46.71956 13.51079,46.71956"
         style="fill:none;stroke:#000000;stroke-width:2;stroke-linecap:butt;stroke-linejoin:miter;stroke-miterlimit:4;stroke-opacity:1;stroke-dasharray:none" />
      <path
         style="fill:none;stroke:#000000;stroke-width:2;stroke-linecap:butt;stroke-linejoin:miter;stroke-miterlimit:4;stroke-opacity:1;stroke-dasharray:none"
         d="m 381.45622,303.33407 c 0,0 13.80635,28.5688 14.01586,43.94163 0.22091,16.2098 -13.51079,46.71956 -13.51079,46.71956"
         id="path3882"
         inkscape:connector-curvature="0"
         sodipodi:nodetypes="csc" />
    </g>
    <g
       id="g3884"
       transform="matrix(-4.3024286,-9.9135916,9.9135916,-4.3024286,-768.1257,4865.6616)"
       style="stroke-width:2;stroke-miterlimit:4;stroke-dasharray:none">
      <path
         style="fill:none;stroke:#000000;stroke-width:2;stroke-linecap:butt;stroke-linejoin:miter;stroke-miterlimit:4;stroke-opacity:1;stroke-dasharray:none"
         d="m 381.83766,303.46034 c 0,0 -13.80635,28.5688 -14.01586,43.94163 -0.22091,16.2098 13.51079,46.71956 13.51079,46.71956"
         id="path3886"
         inkscape:connector-curvature="0"
         sodipodi:nodetypes="csc" />
      <path
         sodipodi:nodetypes="csc"
         inkscape:connector-curvature="0"
         id="path3888"
         d="m 381.45622,303.33407 c 0,0 13.80635,28.5688 14.01586,43.94163 0.22091,16.2098 -13.51079,46.71956 -13.51079,46.71956"
         style="fill:none;stroke:#000000;stroke-width:2;stroke-linecap:butt;stroke-linejoin:miter;stroke-miterlimit:4;stroke-opacity:1;stroke-dasharray:none" />
    </g>
  </g>
</svg>
